<svg xmlns="http://www.w3.org/2000/svg" viewBox="0 0 191.81 201.66"><g id="Layer_2" data-name="Layer 2"><g id="Layer_1-2" data-name="Layer 1"><path d="M161,56.5c-6.19-5.23-12-10.7-18.34-15.36C135,35.57,126.15,36.48,119.18,43a59.67,59.67,0,0,0-6.87,7.76c-2,2.58-3.5,5.46-5.42,8.51-.38-.71-.75-1.08-.75-1.46,0-16.32-.12-32.65,0-49A8.69,8.69,0,0,1,115,.06q34-.1,68,0c5.68,0,8.83,4.31,8.83,11.48,0,25,.15,50-.07,75-.15,16.86-2.07,33.54-6.95,49.76-5,16.55-12,32.19-24,44.82-10,10.48-22.59,16.89-36.91,19.58a48.71,48.71,0,0,1-9.32.95,8.6,8.6,0,0,1-8.37-8.13c-.17-10,0-19.93,0-28.83,7.73-2.71,15.06-4.6,21.8-7.77,15.41-7.23,21.81-20.46,23.24-36.82,1.08-12.39-1.81-24.26-4.25-36.17-2.54-12.35.36-20.67,12-25.93A13.86,13.86,0,0,0,161,56.5Z"/><path d="M.08,163.5c11.69-1.31,21.76-4.55,30.65-11.43,9.68-7.49,13.44-17.71,15.42-29.21,2.35-13.63-1.51-26.54-4.31-39.46C39.37,72,43.27,62.32,54,58a12.34,12.34,0,0,0,2.31-1.83C48.89,50.52,42.12,44.36,34.4,39.81c-9.55-5.64-17.16-.76-23.36,5.43C7.12,49.16,4.17,54,.35,59.08.23,57.37.09,56.19.09,55q0-22,0-44C.08,3.61,3.65,0,10.94,0Q42.18,0,73.42,0c7,0,10.31,3.27,10.32,10.34,0,30.32,1,60.69-.24,91-1.09,27.12-8.15,53.06-25.16,75.06-12.12,15.66-28.4,24.34-48.4,25.25-5.77.26-9.59-3.18-9.78-9C-.14,183.07.08,173.42.08,163.5Z"/><path d="M32.78,50.83c-.33,2.71-2,4.79-5.59,4.9s-6-1.37-6.06-5.4c-.06-3.87,2.2-6.13,5.63-6.14S32.62,46.26,32.78,50.83Z"/><path d="M131.56,55.72C127.49,56,126.05,53.9,126,50s2.78-6.09,5.34-5.61c2.41.45,5.61,3.46,6.07,5.82C138,53.24,135.59,56,131.56,55.72Z"/></g></g></svg>